<svg width="40" height="36" viewBox="0 0 40 36" fill="none" xmlns="http://www.w3.org/2000/svg">
<path d="M25.7391 1L26.1721 0.75L25.7391 1.69513e-07L25.3061 0.75L25.7391 1ZM38.9357 23.8573V24.3573H39.8018L39.3687 23.6073L38.9357 23.8573ZM12.5424 23.8573L12.1094 23.6073L11.6764 24.3573H12.5424V23.8573ZM25.3061 1.25L38.5027 24.1073L39.3687 23.6073L26.1721 0.75L25.3061 1.25ZM18.79 14.0361L26.1721 1.25L25.3061 0.75L17.924 13.5361L18.79 14.0361ZM12.4286 12.6302C14.5051 12.6302 16.4449 13.2088 18.0973 14.2133L18.6168 13.3588C16.8122 12.2618 14.6934 11.6302 12.4286 11.6302V12.6302ZM1.5 23.5588C1.5 17.5231 6.39292 12.6302 12.4286 12.6302V11.6302C5.84063 11.6302 0.5 16.9708 0.5 23.5588H1.5ZM12.4286 34.4874C6.39292 34.4874 1.5 29.5945 1.5 23.5588H0.5C0.5 30.1468 5.84063 35.4874 12.4286 35.4874V34.4874ZM23.3536 23.8445C23.2023 29.748 18.3689 34.4874 12.4286 34.4874V35.4874C18.9126 35.4874 24.1881 30.3144 24.3533 23.8701L23.3536 23.8445ZM38.9357 23.3573H23.8535V24.3573H38.9357V23.3573ZM23.8535 23.3573H12.5424V24.3573H23.8535V23.3573ZM12.9754 24.1073L18.79 14.0361L17.924 13.5361L12.1094 23.6073L12.9754 24.1073ZM18.0973 14.2133C21.2519 16.1311 23.3573 19.5993 23.3573 23.5588H24.3573C24.3573 19.2358 22.0573 15.4505 18.6168 13.3588L18.0973 14.2133ZM23.3573 23.5588C23.3573 23.6544 23.3561 23.7496 23.3536 23.8444L24.3533 23.8701C24.3559 23.7666 24.3573 23.6628 24.3573 23.5588H23.3573Z" fill="#919CA9"/>
</svg>
